<svg xmlns="http://www.w3.org/2000/svg" width="136" height="46" viewBox="0 0 193 145" fill="none">
  <path d="M71.1805 145H121.18C147.307 140.896 156.645 133.905 160.68 113L145.68 113.5C140.935 121.633 138.136 124.07 130.18 127H119.18C110.192 123.094 107.144 119.801 105.18 112V103C113.573 84.3324 121.181 76.5901 138.18 66C155.289 55.4221 174.69 49.7462 183.18 37C191.671 24.2538 194.006 15.4336 192.18 0C184.007 18.3995 180.871 22.9538 171.18 32C171.18 32 155.981 40.8364 130.18 57C104.38 73.1636 95.9602 101.32 97.1805 104H96.1805C91.1873 82.9551 83.1981 72.4926 62.1805 57C46.8124 46.5158 37.7114 41.1804 21.1805 32C11.1228 21.7681 10.6686 21.3042 0.180505 0C-0.72547 18.6976 1.55401 27.9958 12.1805 41C27.4438 51.5795 36.6688 56.4344 53.1805 65C72.5259 77.0538 81.3324 84.6631 87.1805 103V112C85.6084 120.082 82.9025 123.02 74.1805 127H63.1805C55.1681 124.175 51.6056 121.275 47.1805 113H32.1805C38.5905 133.589 47.0578 140.705 71.1805 145Z" fill="white"/>
  <path d="M39.5 77C56.6533 81.7971 64.7758 87.4491 76 104C68.4528 82.2493 61.1513 73.9384 41.5 67.5C24.1172 61.2013 15.572 55.7569 3.5 41C8.18987 64.427 15.9755 72.407 39.5 77Z" fill="white"/>
  <path d="M153.752 77C136.48 81.7971 128.302 87.4491 117 104C124.599 82.2493 131.951 73.9384 151.738 67.5C169.241 61.2013 177.845 55.7569 190 41C185.278 64.427 177.439 72.407 153.752 77Z" fill="white"/>
  <path d="M39.5 94C54.1941 95.392 60.8471 98.493 70 108C63.7713 96.0429 58.4986 91.2315 45 87C23.9066 83.6874 19.2681 80.9199 11 72C15.8194 88.1781 22.5962 92.3501 39.5 94Z" fill="white"/>
  <path d="M43.5 108C53.8036 108.073 57.5484 109.535 63 113C57.4836 106.528 53.8118 103.181 44 102.5C36.7466 102.061 31.9151 101.338 22 97.5C26.8605 106.016 31.3797 108.55 43.5 108Z" fill="white"/>
  <path d="M152.983 94C138.538 95.392 131.998 98.493 123 108C129.123 96.0429 134.306 91.2315 147.576 87C168.312 83.6874 172.872 80.9199 181 72C176.262 88.1781 169.6 92.3501 152.983 94Z" fill="white"/>
  <path d="M149.051 108C138.922 108.073 135.241 109.535 129.881 113C135.304 106.528 138.914 103.181 148.559 102.5C155.69 102.061 160.439 101.338 170.186 97.5C165.408 106.016 160.966 108.55 149.051 108Z" fill="white"/>
</svg>